<svg width="144" height="180" viewBox="0 0 144 180" fill="none" xmlns="http://www.w3.org/2000/svg">
<g clip-path="url(#clip0_2_4)">
<path d="M143.998 85.7161C143.625 70.9549 138.702 57.315 130.602 46.0416C130.478 45.8755 130.332 45.6887 130.166 45.4811C130.166 45.4811 130.187 45.4811 130.228 45.4811C129.647 44.6092 129.044 43.7371 128.421 42.8652C125.867 39.4396 127.113 35.9517 127.3 32.4016C127.861 22.623 128.982 12.8444 125.742 3.25273C124.558 -0.297443 121.941 -0.546548 119.013 0.636844C110.103 4.31158 102.875 10.2908 97.392 18.0139C97.3508 18.097 97.3091 18.1593 97.2673 18.2008C96.395 19.3842 94.8373 19.8825 93.4665 19.4465C86.675 17.3911 79.5095 16.2701 72.0325 16.2701C64.6802 16.2701 57.6396 17.3289 51.0349 19.322C49.6641 19.758 48.1687 19.2597 47.2964 18.0763V18.0139C41.8133 10.2908 34.5856 4.31158 25.6755 0.636844C22.747 -0.546548 20.1301 -0.297443 18.9462 3.25273C15.7062 12.8444 16.7654 22.623 17.3262 32.4016C17.5131 35.3912 18.4478 38.3807 17.2016 41.3081C11.8431 47.5364 7.48152 54.6991 4.55306 62.5466C1.62458 70.332 0.00456549 78.678 0.00456549 87.4601C0.00456549 87.7092 0.00456549 87.9583 0.00456549 88.2075C0.00456549 88.332 0.00456549 88.436 0.00456549 88.5189C-0.120051 99.294 2.30997 109.259 6.85844 117.792C16.08 135.356 34.0871 146.754 56.7672 146.941C57.058 146.941 57.3488 146.941 57.6396 146.941C58.4496 146.879 60.3188 146.754 62.2504 146.505C86.5503 143.765 106.427 125.889 111.037 101.598C116.271 74.069 97.4543 49.8409 67.9825 51.9586C46.5487 53.5157 31.2209 73.0725 34.8348 94.1867C36.704 105.024 42.6811 109.704 44.8618 111.488C48.1908 114.211 56.3888 117.141 64.8004 115.848C68.8505 115.225 81.2542 113.37 84.5565 100.166C85.9896 95.121 84.7434 88.6434 80.6934 84.595C76.7057 80.5466 72.2731 78.7129 66.0466 79.7232C65.507 79.8066 65.112 79.9667 64.4933 80.1729C57.3903 82.5396 58.5119 92.5673 66.4871 92.8165C66.6535 92.8165 66.8199 92.8165 66.9856 92.8165C67.3594 92.8165 67.7956 92.7542 68.1694 92.6919C70.7241 92.2559 72.7802 94.7473 71.8456 97.6746C71.6799 98.1318 71.4512 98.5466 71.1602 98.9203C69.0418 101.785 64.1817 102.346 60.6927 101.536C52.9041 99.7299 49.7264 90.1383 53.7765 81.294C57.4526 73.3839 66.9856 69.7092 75.5841 71.1417C83.4349 72.076 91.4727 80.4843 92.5942 89.5777C95.7719 115.488 70.5995 132.491 47.9818 125.266C28.7286 119.038 18.5724 99.9791 22.747 79.9237C28.7909 50.5883 55.6457 35.8894 82.438 41.3703C118.951 48.9067 130.602 86.2767 117.144 116.173C110.227 131.557 97.6412 141.335 83.4972 149.619C78.6372 152.484 74.5872 155.536 71.4095 158.713C63.3717 166.872 62.7667 173.149 63.2427 175.952C63.6521 178.363 65.0285 179.231 66.1338 179.642C66.9949 179.963 67.7439 180.12 68.6611 179.893C70.4618 179.573 72.3036 178.382 73.5236 174.394C75.057 169.382 83.4972 162.561 98.0773 155.785C127.674 143.079 144.185 116.422 143.998 88.2697C143.998 87.9795 143.998 87.7092 143.998 87.4601C143.998 86.8789 143.998 86.2978 143.998 85.7161Z" fill="white"/>
</g>
<defs>
<clipPath id="clip0_2_4">
<rect width="144" height="180" fill="white"/>
</clipPath>
</defs>
</svg>
